<?xml version="1.0" encoding="utf-8"?>
<!-- Generator: Adobe Illustrator 16.0.0, SVG Export Plug-In . SVG Version: 6.00 Build 0)  -->
<!DOCTYPE svg PUBLIC "-//W3C//DTD SVG 1.1//EN" "http://www.w3.org/Graphics/SVG/1.1/DTD/svg11.dtd">
<svg version="1.1" id="圖層_1" xmlns="http://www.w3.org/2000/svg" xmlns:xlink="http://www.w3.org/1999/xlink" x="0px" y="0px"
	 width="841.891px" height="340px" viewBox="0 131.14 841.891 340" enable-background="new 0 131.14 841.891 340"
	 xml:space="preserve">
<g>
	<g>
		<path fill="#ABBADF" d="M451.039,435.794h-5.078l-0.833-10.969l-2.043-16.594h-0.453l-10.837,23.52h-4.466l-10.227-23.52h-0.453
			l-1.973,16.16l-1.057,11.402h-4.852l4.162-35.932h6.594l1.896,5.41l8.255,19.338h0.459l8.633-19.627l1.969-5.121h6.44
			L451.039,435.794z"/>
		<path fill="#ABBADF" d="M493.383,435.794h-5.682l-0.91-3.895l-1.968-5.34l-9.013-0.076l-8.031,0.076l-2.047,5.049l-1.063,4.186
			h-5.601l14.544-35.932h6.517L493.383,435.794z M483.233,422.156l-6.286-17.023h-0.454l-6.898,17.023l6.672,0.072L483.233,422.156z
			"/>
		<path fill="#ABBADF" d="M509.598,424.538l0.152,11.256h-5.61l0.229-10.82l-0.229-25.111h5.684L509.598,424.538z M516.415,416.675
			c5.35,6.252,11.032,12.217,17.043,17.895l-0.151,0.789c-1.564,0.48-3.384,0.844-5.455,1.084l-0.904-0.359
			c-6.468-6.93-12.052-13.277-16.743-19.047v-0.43l13.027-13.568l2.501-3.176l6.74-0.072L516.415,416.675z"/>
		<path fill="#ABBADF" d="M565.652,431.173l0.459,0.436l-0.528,4.186h-22.956l0.225-10.82l-0.225-25.111h23.102l0.383,0.436
			l-0.459,4.184l-9.54-0.289l-7.878,0.072l-0.082,10.893l7.505,0.074l6.59-0.219l0.377,0.502l-0.452,4.262l-6.97-0.221l-7.052,0.078
			l-0.07,4.904l0.07,6.854l7.428,0.07L565.652,431.173z"/>
		<path fill="#ABBADF" d="M620.196,435.794h-5.682l-0.912-3.895l-1.966-5.34l-9.019-0.076l-8.029,0.076l-2.045,5.049l-1.062,4.186
			h-5.607l14.548-35.932h6.518L620.196,435.794z M610.048,422.156l-6.288-17.023h-0.459l-6.892,17.023l6.67,0.072L610.048,422.156z"
			/>
		<path fill="#ABBADF" d="M680.647,435.794h-6.059l-7.426-19.625h-0.453l-7.803,19.625h-6.063l-12.347-35.932h5.684l0.682,3.824
			l9.238,26.123h0.383l8.253-20.996l-3.104-8.951h5.911l0.834,4.256l9.241,25.691h0.45l10.229-25.834l0.908-4.113h5.536
			L680.647,435.794z"/>
		<path fill="#ABBADF" d="M709.814,424.538l0.151,11.256h-5.605l0.228-10.82l-0.228-25.111h5.683L709.814,424.538z"/>
		<path fill="#ABBADF" d="M745.719,401.234l-0.988,5.34l-0.903,0.213c-1.415-1.057-2.757-1.834-4.014-2.342
			c-1.264-0.508-2.577-0.758-3.94-0.758c-2.168,0-3.89,0.539-5.147,1.625c-1.264,1.082-1.896,2.32-1.896,3.715
			c0,1.396,0.615,2.523,1.851,3.391c1.244,0.863,3.145,1.83,5.721,2.885c2.274,0.965,4.083,1.832,5.422,2.6
			c1.337,0.768,2.495,1.787,3.481,3.068c0.987,1.27,1.478,2.82,1.478,4.648c0,1.879-0.528,3.621-1.592,5.23
			c-1.059,1.613-2.615,2.916-4.657,3.9c-2.048,0.98-4.485,1.477-7.313,1.477c-1.766,0-3.622-0.201-5.567-0.615
			c-1.946-0.404-3.749-1.02-5.415-1.836l0.68-5.701l0.763-0.287c1.411,1.346,3.061,2.393,4.957,3.137
			c1.896,0.748,3.651,1.117,5.265,1.117c2.119,0,3.863-0.539,5.229-1.623c1.36-1.08,2.043-2.393,2.043-3.934
			c0-1.443-0.615-2.594-1.851-3.461c-1.245-0.867-3.174-1.873-5.799-3.029c-2.172-0.916-3.955-1.758-5.34-2.529
			c-1.389-0.768-2.564-1.793-3.524-3.066c-0.96-1.275-1.438-2.824-1.438-4.654c0-1.924,0.544-3.65,1.628-5.193
			c1.087-1.541,2.621-2.768,4.621-3.678c1.995-0.914,4.33-1.373,7.008-1.373C739.556,399.501,742.64,400.079,745.719,401.234z"/>
		<path fill="#ABBADF" d="M790.26,424.538l0.153,11.256h-5.602l0.224-10.82l-0.073-4.908l-20.531,0.07l-0.078,4.404l0.159,11.254
			h-5.612l0.229-10.82l-0.229-25.111h5.684l-0.151,15.439l10.225,0.074l10.309-0.074l-0.153-15.439h5.678L790.26,424.538z"/>
	</g>
	<path fill="#E9A9AE" d="M730.175,315.431l3.716,8.967c1.925,4.66,5.63,8.361,10.286,10.295l8.963,3.711l-8.994,3.725
		c-4.637,1.926-8.32,5.609-10.242,10.244l-3.728,9l-3.726-9c-1.925-4.635-5.606-8.318-10.245-10.244l-9.004-3.725l9.004-3.727
		c4.639-1.926,8.32-5.607,10.245-10.242L730.175,315.431z"/>
	<path fill="#ABBADF" d="M660.351,290.914c0,5.498-4.456,9.947-9.955,9.947h-3.383c-5.491,0-9.948-4.449-9.948-9.947v-64.122
		c0-5.498,4.457-9.948,9.948-9.948h3.383c5.499,0,9.955,4.45,9.955,9.948V290.914z"/>
	<path fill="#ABBADF" d="M629.933,245.633c0,5.494-4.025,9.948-8.989,9.948h-3.063c-4.964,0-8.983-4.455-8.983-9.948V181.51
		c0-5.497,4.019-9.95,8.983-9.95h3.063c4.964,0,8.989,4.453,8.989,9.95V245.633z"/>
	<path fill="#ABBADF" d="M789.366,296.795c0,4.423-3.584,8.007-8.008,8.007h-2.726c-4.423,0-8.008-3.584-8.008-8.007v-77.321
		c0-4.419,3.585-8.004,8.008-8.004h2.726c4.424,0,8.008,3.585,8.008,8.004V296.795z"/>
	<path fill="#ABBADF" d="M732.872,269.514c0,3.292-3.581,5.96-8.004,5.96h-2.73c-4.418,0-8.005-2.668-8.005-5.96v-55.183
		c0-3.297,3.586-5.961,8.005-5.961h2.73c4.423,0,8.004,2.664,8.004,5.961V269.514z"/>
	<path fill="#ABBADF" d="M704.827,287.994c0,5.494-4.45,9.949-9.948,9.949h-3.382c-5.498,0-9.956-4.455-9.956-9.949v-61.201
		c0-5.498,4.458-9.947,9.956-9.947h3.382c5.498,0,9.948,4.449,9.948,9.947V287.994z"/>
	<path fill="#ABBADF" d="M673.837,208.289c-2.414,3.423-2.898,5.602-8.331,7.938c-5.433,2.337-12.748,3.464-12.748,3.464
		c-5.923-0.141-4.394-5.382-1.468-10.406c2.567-6.648,3.504-23.951,3.504-23.951c0.154-6.332,5.08-11.35,11.002-11.208l3.649,0.087
		c5.924,0.142,8.349,5.024,8.194,11.36C677.639,185.575,676.25,204.863,673.837,208.289z"/>
	<path fill="#ABBADF" d="M763.685,209.575c-2.418,3.42-2.902,5.601-8.335,7.938c-5.431,2.337-12.748,3.458-12.748,3.458
		c-5.925-0.135-4.393-5.383-1.461-10.401c2.562-6.648,3.5-23.951,3.5-23.951c0.151-6.332,5.077-11.355,10.998-11.208l3.651,0.082
		c5.929,0.148,8.349,5.024,8.193,11.36C767.484,186.855,766.094,206.142,763.685,209.575z"/>
	<rect x="642.388" y="219.579" fill="#ABBADF" width="53.623" height="5.474"/>
	<rect x="724.546" y="243.911" fill="#ABBADF" width="47.843" height="5.47"/>
	<rect x="724.546" y="266.097" fill="#ABBADF" width="47.843" height="5.475"/>
	<rect x="720.53" y="222.314" fill="#ABBADF" width="53.628" height="5.475"/>
	<rect x="722.612" y="288.179" fill="#ABBADF" width="53.628" height="5.471"/>
	<rect x="642.388" y="254.654" fill="#ABBADF" width="53.623" height="5.47"/>
	<rect x="642.388" y="288.179" fill="#ABBADF" width="53.623" height="5.471"/>
	<path fill="#ABBADF" d="M683.384,319.113c-18.317-5.646-32.146,0-38.886,13.793c-6.01,16.836,4.854,27.559,21.511,17.758
		c16.661-9.803,19.357-65.419,16.124-78.584h22.694c0,0,5.509,89.299-55.562,89.299c-50.507,0-17.354-59.934,27.176-47.766
		c0,0,11.296,3.24,11.296,4.268C687.736,318.904,683.384,319.113,683.384,319.113z"/>
	<path fill="#ABBADF" d="M714.51,244.043l18.361-0.131c0,0-4.729,65.107,13.702,65.107c18.427,0,36.39-2.805,43.506,11.258
		c7.117,14.068,15.251,29.143,23.047,29.143c7.792,0,5.083,7.084-2.031,7.715c-7.123,0.625-38.299,5.76-38.299-33.383
		c0,0-0.708-10.264-6.624-10.264c-5.91,0-12.923,0-12.923,0s2.936-0.426-11.634,0C708.827,314.45,714.51,302.433,714.51,244.043z"/>
	<path fill="#ABBADF" d="M706.387,174.127c0,1.416-1.396,2.562-3.111,2.562h-82.827c-1.717,0-3.112-1.144-3.112-2.562l0,0
		c0-1.415,1.396-2.566,3.112-2.566h82.827C704.992,171.561,706.387,172.712,706.387,174.127L706.387,174.127z"/>
	<path fill="#ABBADF" d="M792.211,174.127c0,1.416-1.39,2.562-3.105,2.562h-72.16c-1.717,0-3.105-1.144-3.105-2.562l0,0
		c0-1.415,1.389-2.566,3.105-2.566h72.16C790.821,171.561,792.211,172.712,792.211,174.127L792.211,174.127z"/>
	<path fill="#ABBADF" d="M619.412,326.224c5.851-15.738,10.521-45.427,10.521-93.296h-21.035c0,0,2.34,71.058-14.179,106.14
		c0,0-9.828,17.582-6.406,18.621c3.423,1.041,7.566-2.842,10.646-4.555C602.036,351.425,613.559,341.962,619.412,326.224z"/>
	<path fill="#ABBADF" d="M477.572,213.842c0,1.416-1.145,2.567-2.567,2.567h-68.371c-1.417,0-2.561-1.151-2.561-2.567l0,0
		c0-1.417,1.144-2.565,2.561-2.565h68.371C476.428,211.276,477.572,212.426,477.572,213.842L477.572,213.842z"/>
	<path fill="#ABBADF" d="M563.833,213.842c0,1.416-1.15,2.567-2.568,2.567h-68.371c-1.417,0-2.571-1.151-2.571-2.567l0,0
		c0-1.417,1.154-2.565,2.571-2.565h68.371C562.682,211.276,563.833,212.426,563.833,213.842L563.833,213.842z"/>
	<path fill="#ABBADF" d="M429.05,212.317v-35.831c0-5.147,5.09-9.327,11.359-9.327h3.864c6.271,0,11.354,4.18,11.354,9.327v35.831"
		/>
	<path fill="#ABBADF" d="M513.794,212.317v-35.831c0-5.147,5.084-9.327,11.354-9.327h3.864c6.271,0,11.358,4.18,11.358,9.327v35.831
		"/>
	<path fill="#ABBADF" d="M454.614,315.431h-28.997c-12.869,0-23.293,10.293-23.293,22.973c0,12.689,10.424,22.965,23.293,22.965
		h28.997c12.863,0,23.297-10.275,23.297-22.965C477.911,325.724,467.476,315.431,454.614,315.431z M457.723,352.81
		c0,0-2.043,2.162-5.285,2.162c-3.248,0-13.68,0-14.983,0c-1.298,0-3.058-0.859-5.198-2.342c-2.141-1.494-9.676-9.371-11.691-16.754
		c-1.287-4.723-0.496-9.477,0.522-11.426s4.446-2.615,6.543-2.615c2.081,0,8.778,0,10.819,0c2.039,0,4.479,0.893,4.479,0.893
		s8.392,3.918,13.119,11.23C464.583,345.089,457.723,352.81,457.723,352.81z"/>
	<path fill="#ABBADF" d="M541.577,315.431h-28.998c-12.863,0-23.291,10.293-23.291,22.973c0,12.689,10.428,22.965,23.291,22.965
		h28.998c12.869,0,23.296-10.275,23.296-22.965C564.873,325.724,554.446,315.431,541.577,315.431z M544.687,352.81
		c0,0-2.044,2.162-5.291,2.162c-3.241,0-13.675,0-14.979,0c-1.298,0-3.058-0.859-5.192-2.342
		c-2.146-1.494-9.683-9.371-11.698-16.754c-1.286-4.723-0.496-9.477,0.523-11.426c1.018-1.949,4.444-2.615,6.538-2.615
		c2.086,0,8.781,0,10.817,0c2.045,0,4.485,0.893,4.485,0.893s8.397,3.918,13.121,11.23
		C551.545,345.089,544.687,352.81,544.687,352.81z"/>
	<path fill="#ABBADF" d="M527.579,264.033l3.618,8.738c1.874,4.533,5.481,8.135,10.015,10.015l8.734,3.613l-8.767,3.635
		c-4.512,1.873-8.098,5.459-9.972,9.974l-3.628,8.762l-3.628-8.762c-1.87-4.515-5.46-8.101-9.977-9.974l-8.766-3.635l8.766-3.629
		c4.517-1.863,8.106-5.454,9.977-9.97L527.579,264.033z"/>
	<path fill="#ABBADF" d="M440.618,264.033l3.616,8.738c1.881,4.533,5.482,8.135,10.021,10.015l8.729,3.613l-8.767,3.635
		c-4.514,1.873-8.096,5.459-9.974,9.974l-3.624,8.762l-3.631-8.762c-1.868-4.515-5.46-8.101-9.976-9.974l-8.767-3.635l8.771-3.629
		c4.511-1.863,8.103-5.454,9.973-9.97L440.618,264.033z"/>
	<path fill="#ABBADF" d="M455.114,221.267h-29.002c-12.865,0-23.292,10.292-23.292,22.971c0,12.69,10.427,22.971,23.292,22.971
		h29.002c12.864,0,23.292-10.281,23.292-22.971C478.406,231.558,467.978,221.267,455.114,221.267z M458.22,258.643
		c0,0-2.039,2.163-5.286,2.163s-13.676,0-14.978,0c-1.296,0-3.058-0.86-5.198-2.347c-2.141-1.488-9.682-9.366-11.691-16.75
		c-1.287-4.723-0.496-9.474,0.516-11.423c1.021-1.951,4.453-2.617,6.545-2.617c2.08,0,8.782,0,10.819,0
		c2.044,0,4.484,0.895,4.484,0.895s8.391,3.917,13.121,11.229C465.085,250.925,458.22,258.643,458.22,258.643z"/>
	<path fill="#ABBADF" d="M542.077,221.267h-29.001c-12.863,0-23.293,10.292-23.293,22.971c0,12.69,10.43,22.971,23.293,22.971
		h29.001c12.865,0,23.299-10.281,23.299-22.971C565.376,231.558,554.941,221.267,542.077,221.267z M545.182,258.643
		c0,0-2.037,2.163-5.283,2.163c-3.242,0-13.678,0-14.979,0c-1.299,0-3.057-0.86-5.197-2.347c-2.142-1.488-9.682-9.366-11.692-16.75
		c-1.287-4.723-0.501-9.474,0.517-11.423c1.024-1.951,4.453-2.617,6.545-2.617c2.085,0,8.781,0,10.819,0
		c2.044,0,4.479,0.895,4.479,0.895s8.396,3.917,13.125,11.229C552.048,250.925,545.182,258.643,545.182,258.643z"/>
	<path fill="#ABBADF" d="M573.542,310.796H394.654c-1.525,0-2.764-1.23-2.764-2.758c0-1.525,1.239-2.758,2.764-2.758h178.888
		c1.525,0,2.758,1.232,2.758,2.758C576.3,309.566,575.067,310.796,573.542,310.796z"/>
	<path fill="#ABBADF" d="M573.542,192.495H394.654c-1.525,0-2.764-1.231-2.764-2.758c0-1.526,1.239-2.762,2.764-2.762h178.888
		c1.525,0,2.758,1.236,2.758,2.762C576.3,191.263,575.067,192.495,573.542,192.495z"/>
	<path fill="#ABBADF" d="M160.603,223.762c0,38.346-31.088,69.44-69.441,69.44c-38.352,0-69.441-31.094-69.441-69.44
		c0-38.352,31.089-69.446,69.441-69.446C129.514,154.317,160.603,185.41,160.603,223.762z"/>
	<path fill="#ABBADF" d="M291.033,312.796c-9.993-4.16-21.156-1.182-27.869,6.576c-6.68-7.781-17.839-10.799-27.838-6.682
		c-10.008,4.125-15.793,14.123-15.052,24.355c-10.228-0.773-20.246,4.98-24.41,14.967c-4.158,9.986-1.177,21.152,6.576,27.863
		c-7.78,6.684-10.801,17.834-6.674,27.834c4.124,10.004,14.122,15.797,24.355,15.061c-0.774,10.227,4.974,20.248,14.961,24.404
		c9.991,4.158,21.155,1.182,27.87-6.574c6.684,7.779,17.838,10.799,27.837,6.678c10.008-4.129,15.793-14.121,15.053-24.354
		c10.233,0.771,20.252-4.98,24.409-14.969c4.155-9.986,1.182-21.154-6.576-27.861c7.779-6.686,10.798-17.84,6.674-27.842
		c-4.125-10.004-14.124-15.789-24.355-15.055C306.773,326.972,301.02,316.954,291.033,312.796z"/>
	<path fill="#E9A9AE" d="M309.51,222.683c11.421-5.688,19.287-17.439,19.287-31.061c0-19.162-15.533-34.707-34.705-34.707
		c-13.599,0-25.341,7.851-31.029,19.25c-5.693-11.398-17.434-19.25-31.041-19.25c-19.162,0-34.701,15.543-34.701,34.707
		c0,13.621,7.867,25.373,19.287,31.061c-11.42,5.677-19.287,17.435-19.287,31.058c0,19.161,15.539,34.701,34.701,34.701
		c13.606,0,25.347-7.847,31.041-19.243c5.688,11.396,17.43,19.243,31.029,19.243c19.172,0,34.705-15.54,34.705-34.701
		C328.797,240.119,320.931,228.36,309.51,222.683z M263.061,238.282c-3.373-6.755-8.87-12.243-15.627-15.6
		c6.756-3.361,12.255-8.848,15.627-15.604c3.368,6.756,8.861,12.243,15.621,15.604C271.922,226.039,266.429,231.527,263.061,238.282
		z"/>
	<path fill="#E4C794" d="M172.845,280.246l4.512,10.885c2.342,5.652,6.831,10.14,12.483,12.482l10.881,4.508l-10.92,4.521
		c-5.627,2.338-10.097,6.805-12.428,12.428l-4.528,10.924l-4.517-10.918c-2.331-5.629-6.805-10.096-12.432-12.434l-10.92-4.521
		l10.925-4.525c5.622-2.33,10.097-6.802,12.427-12.425L172.845,280.246z"/>
	<path fill="#E9A9AE" d="M145.016,340.62c-6.718-3.428-14.08-4.244-20.938-2.85c-0.79-6.957-3.848-13.695-9.182-19.033
		c-12.527-12.529-32.838-12.529-45.369,0c-5.334,5.338-8.385,12.082-9.176,19.037c-6.86-1.398-14.22-0.584-20.938,2.846
		c-15.79,8.043-22.067,27.361-14.024,43.146c3.426,6.723,8.896,11.715,15.266,14.611c-3.448,6.09-4.936,13.344-3.761,20.797
		c2.774,17.5,19.202,29.438,36.708,26.666c7.447-1.178,13.882-4.844,18.612-10.004c4.728,5.16,11.163,8.826,18.617,10.004
		c17.5,2.773,33.934-9.166,36.7-26.666c1.177-7.453-0.317-14.705-3.76-20.797c6.364-2.904,11.839-7.891,15.261-14.611
		C167.082,367.982,160.804,348.663,145.016,340.62z M92.216,397.888c-9.891,0-17.904-8.012-17.904-17.902
		c0-9.889,8.014-17.908,17.904-17.908c9.886,0,17.907,8.516,17.907,17.908S102.102,397.888,92.216,397.888z"/>
</g>
</svg>
