<?xml version="1.0" encoding="utf-8"?>
<!-- Generator: Adobe Illustrator 16.0.0, SVG Export Plug-In . SVG Version: 6.00 Build 0)  -->
<!DOCTYPE svg PUBLIC "-//W3C//DTD SVG 1.1//EN" "http://www.w3.org/Graphics/SVG/1.1/DTD/svg11.dtd">
<svg version="1.1" id="圖層_1" xmlns="http://www.w3.org/2000/svg" xmlns:xlink="http://www.w3.org/1999/xlink" x="0px" y="0px"
	 width="595.28px" height="841.89px" viewBox="0 0 595.28 841.89" enable-background="new 0 0 595.28 841.89" xml:space="preserve">
<g>
	<path fill="#D3BB80" d="M499.725,550.506v160.725c0,11.04-8.92,19.972-19.948,19.972H325.036c-12.015,0-21.354-10.484-19.813-22.42
		c6.325-48.716,35.693-161.359,172.422-178.134C489.412,529.208,499.725,538.649,499.725,550.506"/>
	<path fill="#D3BB80" d="M95.555,550.506v160.725c0,11.04,8.931,19.972,19.949,19.972h154.763c11.992,0,21.344-10.484,19.779-22.42
		c-6.291-48.716-35.669-161.359-172.388-178.134C105.881,529.208,95.555,538.649,95.555,550.506"/>
	<path fill="#D3BB80" d="M104.181,196.31v158.158c0,43.781,12.048,87.147,37.041,123.077
		c30.479,43.808,84.896,86.257,180.607,80.851c0,0,94.496-4.999,144.98-85.464c46.925-74.82,25.604-172.587-42.936-228.257
		c-55.29-44.896-148.926-84.228-303.689-66.489C111.027,179.228,104.181,187.095,104.181,196.31"/>
	<path fill="#D3BB80" d="M166.419,117.794v27.928c0,5.849,4.625,10.644,10.485,10.842c29.503,0.986,113.131,4.834,143.734,17.319
		c36.35,14.825-69.187-63.463-147.373-63.197C169.458,110.693,166.419,113.969,166.419,117.794"/>
	<path fill="#D3BB80" d="M419.522,214.128h57.489c5.645,0,10.178,4.55,10.178,10.156v73.612c0,2.414-3.32,3.123-4.193,0.873
		c-7.708-19.699-26.84-58.702-64.154-82.029C417.594,215.958,418.071,214.128,419.522,214.128"/>
	<path fill="#D3BB80" d="M296.563,124.765l113.607-10.048c11.369-0.997,21.253,7.152,21.502,17.739l1.337,54.854
		c0.114,4.903-4.091,8.926-9.362,8.926c-7.345-0.011-17.716,0.362-26.625,2.125c-7.198,1.445-14.633-0.528-19.326-5.775
		c-13.318-14.792-42.573-43.61-82.38-61.377C291.962,129.718,292.869,125.088,296.563,124.765"/>
</g>
</svg>
