<?xml version="1.0" encoding="utf-8"?>
<!-- Generator: Adobe Illustrator 16.0.0, SVG Export Plug-In . SVG Version: 6.00 Build 0)  -->
<!DOCTYPE svg PUBLIC "-//W3C//DTD SVG 1.1//EN" "http://www.w3.org/Graphics/SVG/1.1/DTD/svg11.dtd">
<svg version="1.1" id="圖層_1" xmlns="http://www.w3.org/2000/svg" xmlns:xlink="http://www.w3.org/1999/xlink" x="0px" y="0px"
	 width="595.28px" height="841.89px" viewBox="0 0 595.28 841.89" enable-background="new 0 0 595.28 841.89" xml:space="preserve">
<g>
	<path fill="#D3BB80" d="M518.366,545.073v165.59c0,11.361-9.189,20.54-20.551,20.54H338.402c-12.389,0-21.999-10.801-20.399-23.062
		c6.504-50.199,36.771-166.232,177.617-183.525C507.717,523.132,518.366,532.871,518.366,545.073"/>
	<path fill="#D3BB80" d="M101.992,545.073v165.59c0,11.361,9.201,20.54,20.54,20.54h159.447c12.366,0,21.999-10.801,20.388-23.062
		c-6.492-50.199-36.759-166.232-177.616-183.525C112.642,523.132,101.992,532.871,101.992,545.073"/>
	<path fill="#D3BB80" d="M501.68,130.982c-53.433,6.399-191.594,39.55-191.594,211.001c0-171.452-138.149-204.603-191.548-211.001
		c-11.069-1.325-20.749,7.45-20.749,18.589v186.322c0,53.042,17.165,105.291,51.401,145.809
		c31.913,37.775,82.368,71.673,160.896,72.805c78.563-1.132,129.018-35.03,160.931-72.805c34.213-40.519,51.39-92.767,51.39-145.809
		V149.571C522.406,138.432,512.738,129.657,501.68,130.982"/>
	<path fill="#D3BB80" d="M372.464,149.25c5.559,5.844,4.671,15.256-1.798,20.073c-17.224,12.792-48.039,40.273-60.802,80.436
		c-12.774-40.198-41.29-67.685-57.1-80.477c-6.002-4.863-6.854-13.767-1.542-19.448c9.342-10.042,25.374-24.773,46.988-35.807
		c8.734-4.449,19.196-4.484,27.86,0.076C337.865,120.298,355.532,131.438,372.464,149.25"/>
</g>
</svg>
