<?xml version="1.0" encoding="utf-8"?>
<!-- Generator: Adobe Illustrator 16.0.0, SVG Export Plug-In . SVG Version: 6.00 Build 0)  -->
<!DOCTYPE svg PUBLIC "-//W3C//DTD SVG 1.1//EN" "http://www.w3.org/Graphics/SVG/1.1/DTD/svg11.dtd">
<svg version="1.1" id="圖層_1" xmlns="http://www.w3.org/2000/svg" xmlns:xlink="http://www.w3.org/1999/xlink" x="0px" y="0px"
	 width="595.28px" height="841.89px" viewBox="0 0 595.28 841.89" enable-background="new 0 0 595.28 841.89" xml:space="preserve">
<g>
	<path fill="#D3BB80" d="M532.431,502.418v180.166c0,12.374-10.012,22.387-22.361,22.387H336.613
		c-13.481,0-23.938-11.766-22.222-25.133c7.103-54.607,40.01-180.875,193.264-199.68
		C520.856,478.531,532.431,489.129,532.431,502.418"/>
	<path fill="#D3BB80" d="M79.375,502.418v180.166c0,12.374,10.012,22.387,22.35,22.387h173.469
		c13.467,0,23.937-11.766,22.209-25.133c-7.077-54.607-40.022-180.875-193.265-199.68C90.963,478.531,79.375,489.129,79.375,502.418
		"/>
	<path fill="#D3BB80" d="M303.68,513.32C26.724,518.326,55.159,221.269,55.159,221.269C226.697,191.996,303.68,309.98,303.68,309.98
		s80.744-117.984,252.282-88.712C555.962,221.269,580.636,518.326,303.68,513.32"/>
	<path fill="#D3BB80" d="M290.072,232.68c0,9.91-8.043,17.966-17.978,17.966c-9.911,0-17.953-8.056-17.953-17.966
		c0-9.936,8.042-17.966,17.953-17.966C282.029,214.714,290.072,222.744,290.072,232.68"/>
	<path fill="#D3BB80" d="M323.399,193.928c0,9.935-8.043,17.966-17.966,17.966c-9.936,0-17.979-8.031-17.979-17.966
		c0-9.911,8.043-17.966,17.979-17.966C315.356,175.962,323.399,184.017,323.399,193.928"/>
	<path fill="#D3BB80" d="M356.739,232.68c0,9.91-8.056,17.966-17.979,17.966c-9.911,0-17.979-8.056-17.979-17.966
		c0-9.936,8.068-17.966,17.979-17.966C348.683,214.714,356.739,222.744,356.739,232.68"/>
</g>
</svg>
